# xmcd
#
# Track frame offsets: 
#        150
#        19068
#        39862
#        58779
#        79680
#        97240
#        115460
#        134887
#        152882
#        171382
#        192204
#        213676
#
# Disc length: 3293 seconds
#
# Revision: 0
# Processed by: cddbd v1.5.2PL0 Copyright (c) Steve Scherf et al.
# Submitted via: ExactAudioCopy v0.99pb5
#
DISCID=b20cdb0c
DTITLE=Aaron Einhouse - Off The Edge
DYEAR=2009
DGENRE=Texas Country
TTITLE0=All I Need
TTITLE1=Crockett County Line
TTITLE2=Catch A Glance
TTITLE3=The Last Bandito
TTITLE4=Wearin' Me Thin
TTITLE5=I'll Be Here
TTITLE6=Texas Rain
TTITLE7=Faillin' Insane
TTITLE8=Me and Jean Lafitte
TTITLE9=The Cougar Song
TTITLE10=The Richest Man
TTITLE11=Back Home
EXTD=
EXTT0=
EXTT1=
EXTT2=
EXTT3=
EXTT4=
EXTT5=
EXTT6=
EXTT7=
EXTT8=
EXTT9=
EXTT10=
EXTT11=
PLAYORDER=
